<svg width="22" height="21" viewBox="0 0 22 21" fill="none" xmlns="http://www.w3.org/2000/svg">
<path fill-rule="evenodd" clip-rule="evenodd" d="M21.6328 12.4813V20.3605H17.0318V12.9989C17.0318 11.1585 16.3992 9.89329 14.7313 9.89329C13.4661 9.89329 12.7184 10.756 12.3733 11.5611C12.2583 11.8487 12.2008 12.2513 12.2008 12.6539V20.3605H7.59982C7.59982 20.3605 7.65734 7.88037 7.59982 6.61511H12.2008V8.57052C12.2008 8.57052 12.2008 8.62801 12.1433 8.62801H12.2008V8.57052C12.8334 7.65032 13.8687 6.27003 16.3417 6.27003C19.3323 6.27003 21.6328 8.28296 21.6328 12.4813ZM2.88328 0.0012207C1.33045 0.0012207 0.295227 1.03644 0.295227 2.35921C0.295227 3.68198 1.27294 4.71721 2.82577 4.71721H2.88328C4.49363 4.71721 5.47134 3.68199 5.47134 2.35921C5.41383 1.03644 4.43611 0.0012207 2.88328 0.0012207ZM0.525873 20.3605H5.06935V6.61513H0.525873V20.3605Z" fill="white" style="fill:white;fill-opacity:1;"/>
</svg>
