<svg width="17" height="17" viewBox="0 0 17 17" fill="none" xmlns="http://www.w3.org/2000/svg">
<path fill-rule="evenodd" clip-rule="evenodd" d="M16.0799 10.1913V16.0779H12.6425V10.578C12.6425 9.20304 12.1698 8.25775 10.9237 8.25775C9.97845 8.25775 9.41986 8.90228 9.16205 9.50383C9.07612 9.71866 9.03315 10.0194 9.03315 10.3202V16.0779H5.5957C5.5957 16.0779 5.63867 6.75388 5.5957 5.80859H9.03315V7.2695C9.03315 7.2695 9.03315 7.31246 8.99018 7.31246H9.03315V7.2695C9.5058 6.58201 10.2792 5.55078 12.1269 5.55078C14.3612 5.55078 16.0799 7.05466 16.0799 10.1913ZM2.07224 0.867188C0.912098 0.867188 0.138672 1.64061 0.138672 2.62887C0.138672 3.61713 0.869131 4.39056 2.02927 4.39056H2.07224C3.27535 4.39056 4.00581 3.61713 4.00581 2.62887C3.96284 1.64061 3.23238 0.867188 2.07224 0.867188ZM0.310547 16.0779H3.70504V5.80859H0.310547V16.0779Z" fill="#535353"/>
</svg>
