<svg width="17" height="17" viewBox="0 0 17 17" fill="none" xmlns="http://www.w3.org/2000/svg">
<path fill-rule="evenodd" clip-rule="evenodd" d="M8.12998 0.867188C9.19048 0.905066 10.2889 0.905066 11.3494 0.942939C12.2962 0.980812 13.1674 1.13231 14.0006 1.62468C15.0611 2.26856 15.705 3.21543 15.9322 4.42742C16.0459 5.14704 16.0837 5.90453 16.1216 6.62416C16.1595 8.2149 16.1216 9.80564 16.1216 11.3964C16.1216 12.2296 16.0837 13.0629 15.8186 13.8582C15.2884 15.4111 14.19 16.358 12.5992 16.661C11.8796 16.8125 11.1221 16.8125 10.4025 16.8504C8.81173 16.8882 7.25885 16.8504 5.6681 16.8504C4.83485 16.8504 4.0016 16.8125 3.20623 16.5474C1.65335 16.0171 0.706474 14.9187 0.403473 13.328C0.251976 12.6084 0.251976 11.8509 0.2141 11.1313C0.176223 9.54052 0.2141 7.94978 0.2141 6.35904C0.2141 5.52579 0.251976 4.69255 0.5171 3.89717C1.04735 2.3443 2.14573 1.39744 3.73647 1.09444C4.4561 0.942944 5.2136 0.942944 5.93323 0.905066C6.65285 0.867188 7.37247 0.867188 8.12998 0.867188ZM14.6822 8.7079C14.6444 8.7079 14.6822 8.7079 14.6822 8.7079C14.6444 8.06402 14.6444 7.45802 14.6444 6.81415C14.6444 6.20816 14.6065 5.60216 14.5307 4.99616C14.3792 3.63267 13.5839 2.72367 12.2582 2.45855C11.5765 2.30705 10.819 2.30705 10.1372 2.30705C8.77373 2.26918 7.4481 2.26918 6.0846 2.30705C5.40285 2.30705 4.7211 2.34492 4.07722 2.45855C2.94097 2.64792 2.1456 3.2918 1.80473 4.42804C1.6911 4.80679 1.65323 5.18554 1.61535 5.56428C1.57747 7.00353 1.57747 8.44277 1.57747 9.88201C1.57747 10.791 1.61535 11.7379 1.6911 12.6469C1.80473 14.0104 2.63797 14.9572 4.00148 15.1845C4.68322 15.2981 5.40285 15.336 6.12248 15.336C7.4481 15.3739 8.77373 15.336 10.1372 15.336C10.7432 15.336 11.3492 15.2981 11.9552 15.2224C12.5234 15.1845 13.0536 14.9951 13.5081 14.6164C14.2656 14.0104 14.5307 13.215 14.5686 12.306C14.6444 11.1698 14.6444 9.95776 14.6822 8.7079Z" fill="#535353"/>
<path fill-rule="evenodd" clip-rule="evenodd" d="M12.2201 8.85804C12.2201 11.1305 10.4021 12.9485 8.12957 12.9485C5.85707 12.9485 4.03906 11.1305 4.03906 8.82017C4.03906 6.58556 5.89494 4.76758 8.16744 4.76758C10.4021 4.76758 12.2201 6.58556 12.2201 8.85804ZM8.12999 11.5101C9.56923 11.5101 10.7812 10.2981 10.7812 8.85891C10.7812 7.41967 9.56923 6.20768 8.12999 6.20768C6.65286 6.20768 5.47873 7.41967 5.47873 8.85891C5.44086 10.2981 6.65286 11.5101 8.12999 11.5101Z" fill="#535353"/>
<path d="M13.3188 4.57773C13.3188 5.10799 12.9022 5.56249 12.3719 5.56249C11.8417 5.56249 11.3872 5.10799 11.4251 4.57773C11.4251 4.04749 11.8417 3.63086 12.3719 3.63086C12.9022 3.63086 13.3188 4.04748 13.3188 4.57773Z" fill="#535353"/>
</svg>
