<svg width="22" height="19" viewBox="0 0 22 19" fill="none" xmlns="http://www.w3.org/2000/svg">
<path fill-rule="evenodd" clip-rule="evenodd" d="M21.6158 2.82596C20.8126 3.1774 20.0093 3.42842 19.1056 3.52883C20.0093 2.97658 20.7121 2.1231 21.0134 1.11901C20.1599 1.62106 19.206 1.97249 18.2521 2.1733C17.4488 1.31982 16.2941 0.767578 15.039 0.767578C12.6292 0.767578 10.6712 2.72555 10.6712 5.13537C10.6712 5.48681 10.7214 5.83823 10.7716 6.13947C7.10661 5.93865 3.8935 4.23169 1.73469 1.57085C1.33305 2.22351 1.13223 2.97658 1.13223 3.77985C1.13223 5.28599 1.8853 6.64151 3.09022 7.44478C2.38735 7.44478 1.68448 7.24397 1.08202 6.89253V6.94273C1.08202 9.05133 2.58817 10.8587 4.59637 11.2603C4.24493 11.3607 3.8433 11.4109 3.44165 11.4109C3.14043 11.4109 2.8894 11.3607 2.63838 11.3105C3.19063 13.0677 4.79719 14.3228 6.75517 14.373C5.24903 15.5277 3.39145 16.2306 1.33305 16.2306C0.981616 16.2306 0.630184 16.2306 0.278748 16.1804C2.23674 17.4355 4.49596 18.1383 7.0062 18.1383C15.0892 18.1383 19.457 11.4611 19.457 5.68762C19.457 5.48681 19.457 5.28599 19.457 5.13537C20.3105 4.48272 21.0636 3.67944 21.6158 2.82596Z" fill="white"/>
</svg>
