<svg width="17" height="14" viewBox="0 0 17 14" fill="none" xmlns="http://www.w3.org/2000/svg">
<path fill-rule="evenodd" clip-rule="evenodd" d="M16.4059 1.85816C15.8058 2.12072 15.2056 2.30826 14.5305 2.38328C15.2056 1.97068 15.7307 1.33304 15.9558 0.582871C15.3182 0.957955 14.6055 1.22051 13.8928 1.37055C13.2927 0.732902 12.43 0.320312 11.4923 0.320312C9.69185 0.320312 8.22901 1.78314 8.22901 3.58354C8.22901 3.84611 8.26652 4.10866 8.30403 4.33372C5.5659 4.18368 3.16535 2.90839 1.55247 0.920449C1.2524 1.40806 1.10237 1.97068 1.10237 2.57082C1.10237 3.69607 1.665 4.70879 2.56521 5.30893C2.04008 5.30893 1.51496 5.1589 1.06486 4.89633V4.93384C1.06486 6.5092 2.19012 7.8595 3.69047 8.15956C3.4279 8.23458 3.12784 8.27209 2.82776 8.27209C2.60272 8.27209 2.41517 8.23458 2.22763 8.19708C2.64022 9.50986 3.8405 10.4476 5.30334 10.4851C4.17808 11.3478 2.79026 11.8729 1.2524 11.8729C0.989843 11.8729 0.727284 11.8729 0.464722 11.8354C1.92756 12.7731 3.61545 13.2982 5.49088 13.2982C11.5298 13.2982 14.793 8.3096 14.793 3.99614C14.793 3.84611 14.793 3.69607 14.793 3.58354C15.4307 3.09594 15.9933 2.4958 16.4059 1.85816V1.85816Z" fill="#535353"/>
</svg>
