<svg width="17" height="14" viewBox="0 0 17 14" fill="none" xmlns="http://www.w3.org/2000/svg">
<path fill-rule="evenodd" clip-rule="evenodd" d="M16.406 1.72534C15.8059 1.9879 15.2057 2.17545 14.5306 2.25046C15.2057 1.83787 15.7309 1.20023 15.9559 0.450059C15.3183 0.825143 14.6056 1.0877 13.8929 1.23773C13.2928 0.60009 12.4301 0.1875 11.4924 0.1875C9.69198 0.1875 8.22913 1.65033 8.22913 3.45073C8.22913 3.71329 8.26664 3.97585 8.30415 4.2009C5.56602 4.05087 3.16547 2.77558 1.55259 0.787637C1.25252 1.27524 1.10249 1.83787 1.10249 2.438C1.10249 3.56326 1.66512 4.57598 2.56533 5.17611C2.04021 5.17611 1.51509 5.02608 1.06498 4.76352V4.80103C1.06498 6.37639 2.19024 7.72668 3.69059 8.02675C3.42802 8.10176 3.12796 8.13928 2.82789 8.13928C2.60284 8.13928 2.41529 8.10176 2.22775 8.06426C2.64034 9.37705 3.84063 10.3148 5.30346 10.3523C4.1782 11.215 2.79038 11.7401 1.25252 11.7401C0.989965 11.7401 0.727406 11.7401 0.464844 11.7026C1.92768 12.6403 3.61557 13.1654 5.491 13.1654C11.5299 13.1654 14.7932 8.17678 14.7932 3.86332C14.7932 3.71329 14.7932 3.56326 14.7932 3.45073C15.4308 2.96313 15.9934 2.36298 16.406 1.72534Z" fill="white"/>
</svg>
